<svg id="visual" viewBox="0 0 1440 822" width="1440" height="822" xmlns="http://www.w3.org/2000/svg" xmlns:xlink="http://www.w3.org/1999/xlink" version="1.1"><rect x="0" y="0" width="1440" height="822" fill="#56230E"></rect><path d="M0 523L34.3 525.5C68.7 528 137.3 533 205.8 557.8C274.3 582.7 342.7 627.3 411.2 632.3C479.7 637.3 548.3 602.7 617 600.2C685.7 597.7 754.3 627.3 823 646.7C891.7 666 960.3 675 1028.8 673C1097.3 671 1165.7 658 1234.2 634C1302.7 610 1371.3 575 1405.7 557.5L1440 540L1440 823L1405.7 823C1371.3 823 1302.7 823 1234.2 823C1165.7 823 1097.3 823 1028.8 823C960.3 823 891.7 823 823 823C754.3 823 685.7 823 617 823C548.3 823 479.7 823 411.2 823C342.7 823 274.3 823 205.8 823C137.3 823 68.7 823 34.3 823L0 823Z" fill="#FFC450" stroke-linecap="round" stroke-linejoin="miter"></path></svg>